/* XPM */
const char * floppy_disc_xpm[] = {
"24 24 326 2",
"  	c None",
". 	c #5891B9",
"+ 	c #5390BA",
"@ 	c #538AB3",
"# 	c #5383AA",
"$ 	c #5386AD",
"% 	c #5287AE",
"& 	c #7AA0BD",
"* 	c #87A8C3",
"= 	c #85A7C2",
"- 	c #89A9C3",
"; 	c #86A8C2",
"> 	c #87A8C2",
", 	c #6190B5",
"' 	c #518AB4",
") 	c #518AB3",
"! 	c #5C8DB3",
"~ 	c #3F76A1",
"{ 	c #78C4EB",
"] 	c #40ACE4",
"^ 	c #4697C9",
"/ 	c #467CA5",
"( 	c #4588B3",
"_ 	c #428DB9",
": 	c #DBE7F0",
"< 	c #FFFFFF",
"[ 	c #7DAFD1",
"} 	c #3D97CD",
"| 	c #4499CC",
"1 	c #60A5D1",
"2 	c #7DA6C5",
"3 	c #3B739F",
"4 	c #65B7E3",
"5 	c #2B9FDD",
"6 	c #318AC0",
"7 	c #316C9A",
"8 	c #3079A8",
"9 	c #2C7DAE",
"0 	c #D3E2EC",
"a 	c #F4F9FC",
"b 	c #53A4D3",
"c 	c #4099CD",
"d 	c #3E92C7",
"e 	c #CDDEEA",
"f 	c #6CA4C9",
"g 	c #2888C3",
"h 	c #318BC2",
"i 	c #2D87C1",
"j 	c #5CA1CD",
"k 	c #5688AF",
"l 	c #3A729F",
"m 	c #63B7E4",
"n 	c #2DA2DE",
"o 	c #338BC1",
"p 	c #336E9B",
"q 	c #327AA9",
"r 	c #2E7EAF",
"s 	c #D4E2EC",
"t 	c #F3F9FD",
"u 	c #3FA1D6",
"v 	c #2B95D0",
"w 	c #288DC8",
"x 	c #C7DAE8",
"y 	c #6DA5CA",
"z 	c #2A8AC4",
"A 	c #338DC4",
"B 	c #338BC2",
"C 	c #348CC3",
"D 	c #266CA1",
"E 	c #38729F",
"F 	c #61B6E4",
"G 	c #2EA3DF",
"H 	c #338CC2",
"I 	c #F3F9FC",
"J 	c #43A2D6",
"K 	c #2F96D0",
"L 	c #2C8EC8",
"M 	c #C8DBE8",
"N 	c #6EA5CA",
"O 	c #2B8BC4",
"P 	c #348EC4",
"Q 	c #348CC2",
"R 	c #368DC4",
"S 	c #20699E",
"T 	c #36719E",
"U 	c #5EB5E3",
"V 	c #3097D0",
"W 	c #2F8FC9",
"X 	c #C9DCE9",
"Y 	c #6CA4CA",
"Z 	c #2688C3",
"` 	c #2D8AC3",
" .	c #2C87C0",
"..	c #2F89C2",
"+.	c #1D679D",
"@.	c #35709E",
"#.	c #5CB3E2",
"$.	c #2EA2DF",
"%.	c #45A3D7",
"&.	c #2B94D0",
"*.	c #1B85C4",
"=.	c #C3D7E6",
"-.	c #4F92BF",
";.	c #0070B7",
">.	c #0372B6",
",.	c #026FB4",
"'.	c #025693",
").	c #34709E",
"!.	c #5AB2E1",
"~.	c #2FA1DE",
"{.	c #2E7FB0",
"].	c #D4E3EC",
"^.	c #F2F9FC",
"/.	c #1B8DCD",
"(.	c #0079C2",
"_.	c #006BB6",
":.	c #BBD0E1",
"<.	c #498EBC",
"[.	c #006CB5",
"}.	c #0070B5",
"|.	c #006DB2",
"1.	c #006EB3",
"2.	c #005492",
"3.	c #326F9D",
"4.	c #57B0DF",
"5.	c #2FA0DD",
"6.	c #3389BF",
"7.	c #336D9A",
"8.	c #D2E1EB",
"9.	c #47A4D8",
"0.	c #359AD2",
"a.	c #3393CA",
"b.	c #CBDDE9",
"c.	c #478CBA",
"d.	c #006FB4",
"e.	c #316E9D",
"f.	c #55AEDE",
"g.	c #2F9ED9",
"h.	c #3371A0",
"i.	c #3376A4",
"j.	c #2C79AA",
"k.	c #89ADC8",
"l.	c #E0E5EC",
"m.	c #D9E1E9",
"n.	c #D9E2EA",
"o.	c #DDE5EB",
"p.	c #BACDDD",
"q.	c #1373B0",
"r.	c #006DB1",
"s.	c #006CB2",
"t.	c #2F6D9C",
"u.	c #52ABDC",
"v.	c #309BD5",
"w.	c #339FD9",
"x.	c #3398D0",
"y.	c #3492C9",
"z.	c #3594CA",
"A.	c #1683C2",
"B.	c #0579BC",
"C.	c #0678BB",
"D.	c #0678BA",
"E.	c #0677B9",
"F.	c #0676B8",
"G.	c #0875B6",
"H.	c #0874B5",
"I.	c #0872B3",
"J.	c #0770B1",
"K.	c #016AAF",
"L.	c #0072B9",
"M.	c #0071B6",
"N.	c #006CB1",
"O.	c #2E6C9C",
"P.	c #50A9DA",
"Q.	c #3099D3",
"R.	c #319BD5",
"S.	c #2995D0",
"T.	c #2892CE",
"U.	c #0A83C7",
"V.	c #0077C1",
"W.	c #0076C0",
"X.	c #0075BF",
"Y.	c #0074BE",
"Z.	c #0072BC",
"`.	c #0071BA",
" +	c #006FB8",
".+	c #006EB7",
"++	c #006BB4",
"@+	c #0069B2",
"#+	c #0069B0",
"$+	c #0066AD",
"%+	c #0063AA",
"&+	c #006CB0",
"*+	c #006BB0",
"=+	c #005391",
"-+	c #2D6B9B",
";+	c #4EA6D8",
">+	c #2E98D3",
",+	c #3C99CD",
"'+	c #A3C3D9",
")+	c #B4CBDD",
"!+	c #A3C1D6",
"~+	c #A6C2D7",
"{+	c #A6C2D6",
"]+	c #A6C1D6",
"^+	c #A7C2D5",
"/+	c #A7C0D4",
"(+	c #2F7FB4",
"_+	c #0067AE",
":+	c #006AB0",
"<+	c #2B6A9B",
"[+	c #4BA3D6",
"}+	c #2993CF",
"|+	c #5FA6D1",
"1+	c #FFFFFC",
"2+	c #FFFFFD",
"3+	c #70A0C3",
"4+	c #0060A9",
"5+	c #006AAF",
"6+	c #2A699A",
"7+	c #48A1D4",
"8+	c #2A92CE",
"9+	c #559FCC",
"0+	c #F8F5F3",
"a+	c #F2F2F2",
"b+	c #FFFBF7",
"c+	c #6D9EC1",
"d+	c #0060A8",
"e+	c #0068AE",
"f+	c #005290",
"g+	c #286899",
"h+	c #479FD1",
"i+	c #238DCA",
"j+	c #3A8FC3",
"k+	c #F5F1EF",
"l+	c #ECECEC",
"m+	c #FBF5F1",
"n+	c #6B9CBF",
"o+	c #005FA7",
"p+	c #0067AD",
"q+	c #276799",
"r+	c #459CCF",
"s+	c #087CC0",
"t+	c #348AC0",
"u+	c #F0ECEA",
"v+	c #E6E6E6",
"w+	c #F4EFEB",
"x+	c #6A9ABD",
"y+	c #005DA6",
"z+	c #0067AC",
"A+	c #276798",
"B+	c #3994CA",
"C+	c #0070B9",
"D+	c #368ABF",
"E+	c #EDE7E6",
"F+	c #E1E0DF",
"G+	c #E1E0E0",
"H+	c #EFE9E5",
"I+	c #6998BB",
"J+	c #005DA5",
"K+	c #0066AB",
"L+	c #2285C2",
"M+	c #006DB6",
"N+	c #3689BE",
"O+	c #E8E3E1",
"P+	c #DBD9D9",
"Q+	c #DBDADA",
"R+	c #E9E2DE",
"S+	c #6796B9",
"T+	c #005CA5",
"U+	c #0065AA",
"V+	c #00518E",
"W+	c #226497",
"X+	c #127ABA",
"Y+	c #006BB3",
"Z+	c #3688BC",
"`+	c #E3DEDC",
" @	c #D4D3D3",
".@	c #D5D4D4",
"+@	c #E3DCD8",
"@@	c #6594B7",
"#@	c #005BA4",
"$@	c #0064A9",
"%@	c #1B5F94",
"&@	c #0972B5",
"*@	c #0069B1",
"=@	c #3686BA",
"-@	c #DFDAD8",
";@	c #CFCECE",
">@	c #D0CFCF",
",@	c #DDD7D3",
"'@	c #6493B6",
")@	c #005AA2",
"!@	c #0062A7",
"~@	c #00508E",
"{@	c #125990",
"]@	c #056EB2",
"^@	c #0067AF",
"/@	c #3685B9",
"(@	c #DBD7D5",
"_@	c #CBCACA",
":@	c #CCCBCB",
"<@	c #D9D3CF",
"[@	c #6391B4",
"}@	c #0059A1",
"|@	c #0061A6",
"1@	c #00508D",
"2@	c #044F89",
"3@	c #036DB1",
"4@	c #3987BA",
"5@	c #DFD9D3",
"6@	c #CDCAC5",
"7@	c #CECBC7",
"8@	c #DCD3CB",
"9@	c #6693B4",
"0@	c #0058A2",
"a@	c #0061A7",
"b@	c #005C9C",
"c@	c #005CA0",
"d@	c #2873A8",
"e@	c #A7B7C4",
"f@	c #9DAEBC",
"g@	c #9DAFBD",
"h@	c #A7B5C0",
"i@	c #4B7FA8",
"j@	c #005297",
"k@	c #005698",
"  . + @ # $ % & * = = = = - - - ; > , ' ) !     ",
"~ { ] ^ / ( _ : < < < < < < < < < < [ } | 1 2   ",
"3 4 5 6 7 8 9 0 < < < < a b c d e < f g h i j k ",
"l m n o p q r s < < < < t u v w x < y z A B C D ",
"E F G H p q r s < < < < I J K L M < N O P Q R S ",
"T U G H p q r s < < < < I J V W X < Y Z `  ...+.",
"@.#.$.o p q r s < < < < t %.&.*.=.< -.;.>.,.,.'.",
").!.~.o p q {.].< < < < ^./.(._.:.< <.[.}.|.1.2.",
"3.4.5.6.7.q {.8.< < < < t 9.0.a.b.< c.[.d.|.|.2.",
"e.f.g.a.h.i.j.k.l.m.m.m.n.n.n.n.o.p.q.;.d.r.s.2.",
"t.u.v.w.x.y.z.A.B.C.D.E.F.G.H.I.J.K.L.M.1.N.N.2.",
"O.P.Q.R.S.T.U.V.W.X.Y.Z.`. +.+++@+#+$+%+#+&+*+=+",
"-+;+>+,+'+)+!+~+~+~+{+{+]+]+]+]+]+]+^+/+(+_+:+=+",
"<+[+}+|+1+1+2+2+2+2+2+2+2+2+2+2+2+2+2+< 3+4+5+=+",
"6+7+8+9+0+a+a+a+a+a+a+a+a+a+a+a+a+a+a+b+c+d+e+f+",
"g+h+i+j+k+l+l+l+l+l+l+l+l+l+l+l+l+l+l+m+n+o+p+f+",
"q+r+s+t+u+v+v+v+v+v+v+v+v+v+v+v+v+v+v+w+x+y+z+f+",
"A+B+C+D+E+F+G+G+G+G+G+G+G+G+G+G+G+G+G+H+I+J+K+f+",
"A+L+M+N+O+P+Q+Q+Q+Q+Q+Q+Q+Q+Q+Q+Q+Q+Q+R+S+T+U+V+",
"W+X+Y+Z+`+ @.@.@.@.@.@.@.@.@.@.@.@.@.@+@@@#@$@V+",
"%@&@*@=@-@;@>@>@>@>@>@>@>@>@>@>@>@>@>@,@'@)@!@~@",
"{@]@^@/@(@_@:@:@:@:@:@:@:@:@:@:@:@:@:@<@[@}@|@1@",
"2@3@_+4@5@6@7@7@7@7@7@7@7@7@7@7@7@7@7@8@9@0@a@~@",
"  b@c@d@e@f@g@g@g@g@g@g@g@g@g@g@g@g@g@h@i@j@k@  "};
