/* XPM */
const char * info_xpm[] = {
"16 16 138 2",
"  	c None",
". 	c #5E5B59",
"+ 	c #676462",
"@ 	c #6C6968",
"# 	c #6B6967",
"$ 	c #666362",
"% 	c #5D5A58",
"& 	c #5D5B59",
"* 	c #72706E",
"= 	c #807E7C",
"- 	c #838180",
"; 	c #82817F",
"> 	c #7F7D7C",
", 	c #716E6D",
"' 	c #5C5957",
") 	c #625F5D",
"! 	c #7D7C7A",
"~ 	c #858482",
"{ 	c #878584",
"] 	c #8E8C8C",
"^ 	c #959493",
"/ 	c #8C8A89",
"( 	c #868584",
"_ 	c #858382",
": 	c #7C7A79",
"< 	c #605D5B",
"[ 	c #5E5B5A",
"} 	c #7E7C7B",
"| 	c #868483",
"1 	c #898887",
"2 	c #878585",
"3 	c #BBBABA",
"4 	c #FCFCFC",
"5 	c #ABA9A9",
"6 	c #868484",
"7 	c #898787",
"8 	c #858483",
"9 	c #747271",
"0 	c #8F8D8D",
"a 	c #B8B7B7",
"b 	c #EBEBEB",
"c 	c #AAA8A8",
"d 	c #908E8E",
"e 	c #8A8988",
"f 	c #726F6E",
"g 	c #817F7E",
"h 	c #878685",
"i 	c #949392",
"j 	c #989796",
"k 	c #A9A8A7",
"l 	c #B9B9B8",
"m 	c #B7B7B6",
"n 	c #999796",
"o 	c #828180",
"p 	c #807E7E",
"q 	c #82807F",
"r 	c #817F7D",
"s 	c #6A6867",
"t 	c #8A8887",
"u 	c #918F8F",
"v 	c #989696",
"w 	c #989897",
"x 	c #C5C4C4",
"y 	c #FFFFFF",
"z 	c #7B7A79",
"A 	c #727070",
"B 	c #6B6968",
"C 	c #706E6C",
"D 	c #64615F",
"E 	c #706D6C",
"F 	c #8B8A89",
"G 	c #929190",
"H 	c #9B9999",
"I 	c #8D8C8C",
"J 	c #ABAAA9",
"K 	c #7F7D7D",
"L 	c #767473",
"M 	c #6D6B6A",
"N 	c #63605F",
"O 	c #5B5856",
"P 	c #6F6D6C",
"Q 	c #949292",
"R 	c #8E8D8C",
"S 	c #81807F",
"T 	c #BBBBBB",
"U 	c #767574",
"V 	c #646261",
"W 	c #6B6867",
"X 	c #8B8988",
"Y 	c #7F7E7D",
"Z 	c #BAB9B9",
"` 	c #AAA9A8",
" .	c #7D7B7B",
"..	c #6C6A69",
"+.	c #63615F",
"@.	c #5A5755",
"#.	c #615E5C",
"$.	c #807F7E",
"%.	c #787675",
"&.	c #7A7878",
"*.	c #B6B5B4",
"=.	c #A8A7A6",
"-.	c #787776",
";.	c #797776",
">.	c #716F6E",
",.	c #696766",
"'.	c #605E5C",
").	c #585553",
"!.	c #757372",
"~.	c #747371",
"{.	c #72706F",
"].	c #727170",
"^.	c #B2B1B0",
"/.	c #A6A5A4",
"(.	c #737170",
"_.	c #656261",
":.	c #5D5958",
"<.	c #7E7D7B",
"[.	c #F8F8F8",
"}.	c #A09F9E",
"|.	c #666463",
"1.	c #5F5C5B",
"2.	c #63605E",
"3.	c #656361",
"4.	c #7D7B7A",
"5.	c #686665",
"6.	c #656362",
"7.	c #5F5D5B",
"8.	c #595755",
"9.	c #595654",
"0.	c #5D5A59",
"a.	c #615F5E",
"b.	c #62605F",
"c.	c #62605E",
"d.	c #625F5E",
"e.	c #615F5D",
"f.	c #595655",
"g.	c #5C5958",
"          . + @ # $ %           ",
"      & * = - - ; - > , '       ",
"    ) ! ~ { ] ^ ^ / ( _ : <     ",
"  [ } | 1 2 3 4 4 5 6 7 8 : '   ",
"  9 | 1 0 0 a b b c 0 d e | f   ",
"< g h ] i j k l m n ( o p q r . ",
"s _ t u v w x y y k z z A B C D ",
"E | F G H I 3 y y J g K L M N O ",
"P | F Q R S T y y J g K U M V O ",
"W _ X ] Y Y Z y y ` }  .9 ..+.@.",
"#.g 1 $.%.&.*.y y =.-.;.>.,.'.).",
"  !.{ ~.{.].^.y y /.>.(..._.:.  ",
"  < <.M ..s k [.[.}.,...|.1.).  ",
"    2._.3.,.(.4.4.>.5.6.7.8.    ",
"      9.0.a.b.c.d.N e.0.9.      ",
"          f.O g.' O 9.          "};
