/* XPM */
const char * play_xpm[] = {
"16 16 145 2",
"  	c None",
". 	c #CFCFCE",
"+ 	c #D7D6D6",
"@ 	c #DADADA",
"# 	c #D6D6D5",
"$ 	c #CECECD",
"% 	c #CFCECE",
"& 	c #E0DFDF",
"* 	c #EAEAEA",
"= 	c #EEEDED",
"- 	c #EEEEEE",
"; 	c #EDEDED",
"> 	c #EAE9E9",
", 	c #DFDEDE",
"' 	c #CDCDCC",
") 	c #D3D3D2",
"! 	c #E9E9E8",
"~ 	c #EFEEEE",
"{ 	c #EFEFEF",
"] 	c #F0EFEF",
"^ 	c #E8E8E7",
"/ 	c #D1D1D0",
"( 	c #D0CFCF",
"_ 	c #E9E9E9",
": 	c #F4F2F1",
"< 	c #FEF7F3",
"[ 	c #F5F3F2",
"} 	c #F2F2F2",
"| 	c #F2F1F1",
"1 	c #F1F0F0",
"2 	c #E8E7E8",
"3 	c #E2E1E1",
"4 	c #F7F4F2",
"5 	c #CCE2ED",
"6 	c #97CBE8",
"7 	c #F6F6F5",
"8 	c #FFFBF7",
"9 	c #F6F5F5",
"0 	c #F3F3F3",
"a 	c #F2F2F1",
"b 	c #F0F0F0",
"c 	c #EFEFEE",
"d 	c #DFDFDF",
"e 	c #ECEBEB",
"f 	c #F1F1F1",
"g 	c #FEF7F4",
"h 	c #BDDDED",
"i 	c #0089D7",
"j 	c #3AA5DE",
"k 	c #B7DAEC",
"l 	c #FDF7F4",
"m 	c #F7F2EF",
"n 	c #EBEBEB",
"o 	c #DAD9D9",
"p 	c #FFF9F6",
"q 	c #C3DFEF",
"r 	c #008BD5",
"s 	c #0085D2",
"t 	c #0082CC",
"u 	c #52A4D3",
"v 	c #C8DAE5",
"w 	c #F6EEEA",
"x 	c #E6E3E2",
"y 	c #DDDDDC",
"z 	c #E0E0DF",
"A 	c #D5D4D4",
"B 	c #DEDDDD",
"C 	c #F3F2F2",
"D 	c #FFFAF7",
"E 	c #C0DCEC",
"F 	c #0084CC",
"G 	c #0081C8",
"H 	c #0076C0",
"I 	c #0677BD",
"J 	c #5FA1CA",
"K 	c #D5DCE0",
"L 	c #E2E0DF",
"M 	c #CECDCD",
"N 	c #DEDEDD",
"O 	c #F0F0EF",
"P 	c #FBF5F2",
"Q 	c #BCD7E6",
"R 	c #007EC5",
"S 	c #007CC2",
"T 	c #0071BB",
"U 	c #0674B9",
"V 	c #5FA0C9",
"W 	c #D5DBE0",
"X 	c #D8D8D8",
"Y 	c #DADAD9",
"Z 	c #F4EEEB",
"` 	c #BBD4E3",
" .	c #0077BE",
"..	c #0073BA",
"+.	c #539DCC",
"@.	c #C8DAE4",
"#.	c #F7F0EB",
"$.	c #E7E4E3",
"%.	c #DDDDDD",
"&.	c #CDCCCC",
"*.	c #D2D2D1",
"=.	c #ECECEC",
"-.	c #EAEAE9",
";.	c #EFEAE7",
">.	c #B4CEDE",
",.	c #006AB4",
"'.	c #388DC3",
").	c #B3CFE1",
"!.	c #F9F3F0",
"~.	c #F3EFEC",
"{.	c #E6E5E5",
"].	c #E1E0E0",
"^.	c #DCDBDB",
"/.	c #CBCACA",
"(.	c #E2E2E2",
"_.	c #E3E3E3",
":.	c #C1D2DD",
"<.	c #90B8D3",
"[.	c #ECEBEA",
"}.	c #F6F0EC",
"|.	c #EAE9E8",
"1.	c #E2E2E1",
"2.	c #D9D9D8",
"3.	c #D1D0CF",
"4.	c #E4E2E1",
"5.	c #EFE9E6",
"6.	c #E7E6E5",
"7.	c #E4E4E4",
"8.	c #E4E3E3",
"9.	c #E1E1E0",
"0.	c #DEDEDE",
"a.	c #D4D3D3",
"b.	c #D8D7D7",
"c.	c #D9D8D8",
"d.	c #DDDCDC",
"e.	c #DFDFDE",
"f.	c #DCDCDC",
"g.	c #CCCCCB",
"h.	c #CCCBCB",
"i.	c #D1D0D0",
"j.	c #D5D5D4",
"k.	c #D8D8D7",
"l.	c #CCCBCA",
"m.	c #CDCBCB",
"n.	c #D0CFCE",
"          . + @ @ # $           ",
"      % & * = - - ; > , '       ",
"    ) ! - ~ { ] ] { - - ^ /     ",
"  ( _ - { : < [ } | 1 { - 2 '   ",
"  3 - { 4 5 6 7 8 9 0 a b c d   ",
"/ e - f g h i j k l m * > n n . ",
"o - ] } p q r s t u v w x y z A ",
"B - ] C D E F F G H I J K L + M ",
"N - O 0 P Q R R S T U V W L X M ",
"Y - O 1 Z `  .T ..+.@.#.$.%.+ &.",
"*.=.] -.;.>.,.'.).!.~.{.].^.A /.",
"  (.{ _.$.:.<.[.}.|.{.1.B 2.(   ",
"  3.> , %.4.5.6.7.8.9.0.@ a./.  ",
"    a.b.c.d.0.e., N f.2.a.g.    ",
"      h.i.j.k.2.c.b.A i.l.      ",
"          m.M n.% M l.          "};
