/* XPM */
const char * remove_xpm[] = {
"24 24 205 2",
"  	c None",
". 	c #595655",
"+ 	c #5F5C5B",
"@ 	c #625F5D",
"# 	c #625F5E",
"$ 	c #646160",
"% 	c #716F6D",
"& 	c #797776",
"* 	c #7F7C7B",
"= 	c #807E7D",
"- 	c #7F7D7C",
"; 	c #797876",
"> 	c #575452",
", 	c #615E5C",
"' 	c #767472",
") 	c #838180",
"! 	c #848281",
"~ 	c #686564",
"{ 	c #7E7C7B",
"] 	c #828180",
"^ 	c #82807F",
"/ 	c #858482",
"( 	c #878584",
"_ 	c #888786",
": 	c #858382",
"< 	c #82817F",
"[ 	c #7E7D7B",
"} 	c #696664",
"| 	c #807F7D",
"1 	c #81807F",
"2 	c #8B8988",
"3 	c #878685",
"4 	c #8B8A89",
"5 	c #8D8B8A",
"6 	c #8D8C8B",
"7 	c #8C8B8A",
"8 	c #8C8A89",
"9 	c #868584",
"0 	c #8A8888",
"a 	c #696765",
"b 	c #635F5E",
"c 	c #9D9C9B",
"d 	c #E9E9E8",
"e 	c #B1B0AF",
"f 	c #898887",
"g 	c #91908F",
"h 	c #929191",
"i 	c #A9A8A7",
"j 	c #EAE9E9",
"k 	c #A5A4A3",
"l 	c #63605E",
"m 	c #787674",
"n 	c #9C9B9A",
"o 	c #F2F2F1",
"p 	c #FFFFFF",
"q 	c #FAFAFA",
"r 	c #B2B1B1",
"s 	c #8F8E8E",
"t 	c #979696",
"u 	c #908F8E",
"v 	c #ABABAA",
"w 	c #F8F8F7",
"x 	c #F6F6F6",
"y 	c #A4A3A2",
"z 	c #787675",
"A 	c #595654",
"B 	c #82807E",
"C 	c #8A8988",
"D 	c #EEEDED",
"E 	c #B6B5B5",
"F 	c #969594",
"G 	c #F5F5F5",
"H 	c #676463",
"I 	c #757271",
"J 	c #868483",
"K 	c #888685",
"L 	c #B1AFAF",
"M 	c #FBFBFB",
"N 	c #B6B6B5",
"O 	c #B0AFAE",
"P 	c #F8F8F8",
"Q 	c #FEFEFE",
"R 	c #999696",
"S 	c #6D6B69",
"T 	c #838280",
"U 	c #777573",
"V 	c #5E5B59",
"W 	c #7D7B7A",
"X 	c #838181",
"Y 	c #8A8887",
"Z 	c #989695",
"` 	c #605E5D",
" .	c #6F6D6C",
"..	c #6A6867",
"+.	c #716F6E",
"@.	c #7A7877",
"#.	c #5E5B5A",
"$.	c #817F7D",
"%.	c #929190",
"&.	c #B7B6B6",
"*.	c #666363",
"=.	c #787776",
"-.	c #706E6E",
";.	c #62605F",
">.	c #63615F",
",.	c #5C5958",
"'.	c #666362",
").	c #817F7E",
"!.	c #858381",
"~.	c #8E8C8C",
"{.	c #939191",
"].	c #999897",
"^.	c #A9A8A8",
"/.	c #969493",
"(.	c #6B6968",
"_.	c #807E7E",
":.	c #777675",
"<.	c #716F6F",
"[.	c #656362",
"}.	c #5E5C5B",
"|.	c #666462",
"1.	c #81807E",
"2.	c #8E8D8C",
"3.	c #949292",
"4.	c #979695",
"5.	c #9F9E9E",
"6.	c #F7F7F7",
"7.	c #9A9998",
"8.	c #7E7C7C",
"9.	c #72706F",
"0.	c #6C6969",
"a.	c #5F5D5C",
"b.	c #5A5755",
"c.	c #646260",
"d.	c #949392",
"e.	c #807F7E",
"f.	c #9C9B9B",
"g.	c #A6A5A4",
"h.	c #747372",
"i.	c #777574",
"j.	c #5F5D5B",
"k.	c #5F5C5A",
"l.	c #838281",
"m.	c #8E8C8B",
"n.	c #848382",
"o.	c #989796",
"p.	c #FDFEFE",
"q.	c #F8F7F7",
"r.	c #A0A09F",
"s.	c #6D6B6A",
"t.	c #696767",
"u.	c #585553",
"v.	c #767473",
"w.	c #A09F9E",
"x.	c #F5F4F4",
"y.	c #969393",
"z.	c #686664",
"A.	c #5C5A58",
"B.	c #83817F",
"C.	c #EEEEEE",
"D.	c #989696",
"E.	c #6C6A69",
"F.	c #7F7E7D",
"G.	c #605E5C",
"H.	c #5A5756",
"I.	c #5B5856",
"J.	c #7A7977",
"K.	c #F6F5F5",
"L.	c #FDFDFD",
"M.	c #666563",
"N.	c #7F7D7D",
"O.	c #757473",
"P.	c #A1A0A0",
"Q.	c #8E8B8A",
"R.	c #5D5A59",
"S.	c #636160",
"T.	c #7C7A79",
"U.	c #8F8E8D",
"V.	c #ECECEC",
"W.	c #9B9998",
"X.	c #615F5E",
"Y.	c #797978",
"Z.	c #797877",
"`.	c #797777",
" +	c #6D6B6B",
".+	c #9E9C9C",
"++	c #ECECEB",
"@+	c #575553",
"#+	c #6F6C6B",
"$+	c #63605F",
"%+	c #71706F",
"&+	c #737170",
"*+	c #5D5B59",
"=+	c #605D5C",
"-+	c #5B5857",
";+	c #676563",
">+	c #696766",
",+	c #6B6967",
"'+	c #686665",
")+	c #5A5856",
"!+	c #615E5D",
"~+	c #656361",
"{+	c #666463",
"]+	c #676564",
"^+	c #646261",
"                  . + @ # + .                   ",
"              $ % & * = = - ; % $ >             ",
"          , ' = ) ) ! ! ! ! ) ) = ' ,           ",
"        ~ { ] ^ / ( _ _ _ _ ( : ^ < [ }         ",
"      } | ) 1 2 3 4 5 6 6 7 8 9 0 ^ ] = a       ",
"    b - ) - c d e f g h h g f i j k { ] - l     ",
"    m ) ^ n o p q r s t t u v w p x y ^ < z A   ",
"  ~ B < C D p p p q E F F e w p p p G 8 ] B H   ",
"  I ) J K L M p p p M N O P p p p Q R S T ! U   ",
"V W X 3 8 Y r q p p p q P p p p Q Z `  ...+.@.#.",
"$ $.! _ 6 %.u &.M p p p p p p Q Z *.=.-...;.>.,.",
"'.).!.f ~.{.].%.^.P p p p p P /.(._.:.<.(.[.}.. ",
"|.1.: f 2.3.4.1 5.6.p p p p G 7.8.8.:.9.0.[.a.b.",
"c.).!.f ~.d.e.f.x p p p p p p M g.h.i.<.(.[.j.. ",
"k.{ l.K m.n.o.G p p p p.q.p p p q r.s. .t.c.#.u.",
"  v.) 9 _ w.x.p p p Q y.7.q p p p q c ..z.;.A.  ",
"  ..B.) Y C.p p p Q D.E.F.g.q p p p x.9.>.G.H.  ",
"  I.J.! - %.K.p L.Z M.1 N.O.P.q p M Q.R.S.R.u.  ",
"    |.^ T.a.U.V.W.X.Y.Z.`.:. +.+++m.@+[.j.b.    ",
"      #+& c.S.v.$+%+%+&+&+9.-...&+*+[.=+-+      ",
"        ;+G.>.S.>+,+E.s.s.E...'+S.S.j.-+        ",
"          )+#.!+S.~+{+]+]+{+^+>.!+*+H.          ",
"            A -+R.+ G.!+!+G.+ R.-+A             ",
"                  . I.I.I.I..                   "};
