/* XPM */
const char * up_xpm[] = {
"16 16 159 2",
"  	c None",
". 	c #0973B3",
"+ 	c #147AB8",
"@ 	c #1B7EBB",
"# 	c #1A7FBB",
"$ 	c #0872B3",
"% 	c #0973B4",
"& 	c #2484BE",
"* 	c #338FC4",
"= 	c #3692C7",
"- 	c #2E8FC5",
"; 	c #3392C7",
"> 	c #3792C7",
", 	c #328EC4",
"' 	c #2283BD",
") 	c #0771B3",
"! 	c #0F77B6",
"~ 	c #318DC3",
"{ 	c #3693C7",
"] 	c #3394C9",
"^ 	c #2990C8",
"/ 	c #66AFD7",
"( 	c #3D95C8",
"_ 	c #2D93C9",
": 	c #3494C9",
"< 	c #3793C8",
"[ 	c #308CC3",
"} 	c #0C75B5",
"| 	c #3593C8",
"1 	c #3395CA",
"2 	c #2692CA",
"3 	c #72B9DE",
"4 	c #FDFEFF",
"5 	c #C7DBEA",
"6 	c #2F8FC5",
"7 	c #2D96CC",
"8 	c #3495CB",
"9 	c #2686BF",
"0 	c #3693C8",
"a 	c #3395CB",
"b 	c #2693CB",
"c 	c #6DB8DE",
"d 	c #F9FCFE",
"e 	c #FFFFFF",
"f 	c #C1D8E9",
"g 	c #2C8FC6",
"h 	c #2F98CE",
"i 	c #3697CB",
"j 	c #3894C8",
"k 	c #2383BE",
"l 	c #0B75B5",
"m 	c #3490C5",
"n 	c #2692CB",
"o 	c #6CB8DE",
"p 	c #F7FCFD",
"q 	c #C0D7E9",
"r 	c #1B87C2",
"s 	c #188AC6",
"t 	c #2B90C7",
"u 	c #3590C5",
"v 	c #197EBA",
"w 	c #3793C7",
"x 	c #2790C8",
"y 	c #6CB6DD",
"z 	c #F7FBFD",
"A 	c #BAD5E7",
"B 	c #0B7ABB",
"C 	c #0078BC",
"D 	c #1681BD",
"E 	c #1078B7",
"F 	c #2082BD",
"G 	c #2E8FC6",
"H 	c #6FB5DA",
"I 	c #FAFDFE",
"J 	c #FCFCFD",
"K 	c #D6E6F1",
"L 	c #F4F8FB",
"M 	c #D9E8F2",
"N 	c #C5DBEA",
"O 	c #1079B9",
"P 	c #0073B7",
"Q 	c #0070B2",
"R 	c #1F82BD",
"S 	c #2F90C6",
"T 	c #67B1D9",
"U 	c #F7FBFE",
"V 	c #61A9D4",
"W 	c #73BFE3",
"X 	c #F1F3F7",
"Y 	c #2E92C9",
"Z 	c #BCE4F5",
"` 	c #B9D4E6",
" .	c #0F79BA",
"..	c #0075B8",
"+.	c #2891C9",
"@.	c #69B5DD",
"#.	c #6DB1D8",
"$.	c #007BC5",
"%.	c #7CC9EA",
"&.	c #F7F6F9",
"*.	c #1888C5",
"=.	c #1096D4",
"-.	c #82BFE0",
";.	c #0A7DBD",
">.	c #0079BD",
",.	c #0075B7",
"'.	c #006FB2",
").	c #0B75B6",
"!.	c #3490C6",
"~.	c #3796CB",
"{.	c #1389C6",
"].	c #007EC3",
"^.	c #0083C8",
"/.	c #7EC6E7",
"(.	c #F6F6F9",
"_.	c #238AC4",
":.	c #0086CA",
"<.	c #007EC0",
"[.	c #0079BB",
"}.	c #0073B6",
"|.	c #006EB1",
"1.	c #2687C0",
"2.	c #0D83C1",
"3.	c #007FC2",
"4.	c #007DC3",
"5.	c #7EC2E3",
"6.	c #F6F7F9",
"7.	c #2287C2",
"8.	c #0082C6",
"9.	c #007FC1",
"0.	c #007BBD",
"a.	c #0076B8",
"b.	c #0071B4",
"c.	c #0A74B5",
"d.	c #318EC4",
"e.	c #0077BD",
"f.	c #86C4E3",
"g.	c #FFFFFE",
"h.	c #2485BE",
"i.	c #007DC0",
"j.	c #0077BA",
"k.	c #0072B5",
"l.	c #0E77B6",
"m.	c #0877B8",
"n.	c #0076B9",
"o.	c #0075B9",
"p.	c #429DCE",
"q.	c #86C0DF",
"r.	c #81BBDD",
"s.	c #127EBC",
"t.	c #0078BB",
"u.	c #0073B5",
"v.	c #006EB2",
"w.	c #0074B6",
"x.	c #0072B6",
"y.	c #006EB5",
"z.	c #006FB5",
"A.	c #0071B3",
"B.	c #0070B3",
"          . + @ # + $           ",
"      % & * = - ; > , ' )       ",
"    ! ~ { ] ^ / ( _ : < [ }     ",
"  % , | 1 2 3 4 5 6 7 8 | [ )   ",
"  9 0 a b c d e e f g h i j k   ",
"l m ] n o p e e e e q r s t u % ",
"v w x y z e e e e e e A B C D E ",
"F G H I e J K e L M e e N O P Q ",
"R S T U e V W e X Y Z e `  ...Q ",
"v w +.@.#.$.%.e &.*.=.-.;.>.,.'.",
").!.~.{.].^./.e (._.:.].<.[.}.|.",
"  1.j 2.3.4.5.e 6.7.8.9.0.a.b.  ",
"  c.d.;.0.e.f.e g.h.i.0.j.k.|.  ",
"    l.m.n.o.p.q.r.s.t.n.u.'.    ",
"      v.b.w.x.y.z...w.b.'.      ",
"          '.Q A.B.Q '.          "};
