/* XPM */
const char * vslider_xpm[] = {
"24 24 11 1",
" 	c None",
".	c #919191",
"+	c #9A999A",
"@	c #9B9B9B",
"#	c #E2E3E5",
"$	c #919291",
"%	c #577492",
"&	c #F3F3F4",
"*	c #E5E6E7",
"=	c #757575",
"-	c #646464",
".++++++++++++++++++++++.",
"@######################@",
"@#####$##########$#####@",
"@#####$##########$#####@",
"@#####$##########$#####@",
"@#####$##########$#####@",
"@#####$##########$#####@",
"@#####$##########$#####@",
"@####%%%%%#######$#####@",
"@###%&&&&%#######$#####@",
"@##%&&&&&%#######$#####@",
"@###%****%######%%%%%##@",
"@####%%%%%#####%&&&&%##@",
"@#####$#######%&&&&&%##@",
"@#####$########%****%##@",
"@#####$#########%%%%%##@",
"@#####$##########$#####@",
"@#####$##########$#####@",
"@#####$##########$#####@",
"@#####$##########$#####@",
"@#####$##########$#####@",
"@#####$##########$#####@",
"@######################@",
"=----------------------="};
