/* XPM */
const char * add_xpm[] = {
"24 24 250 2",
"  	c None",
". 	c #026FB1",
"+ 	c #0A74B5",
"@ 	c #0E76B6",
"# 	c #0F77B6",
"$ 	c #0B75B5",
"% 	c #036FB2",
"& 	c #1178B7",
"* 	c #2383BD",
"= 	c #2C8AC1",
"- 	c #338EC4",
"; 	c #3590C4",
"> 	c #348EC4",
", 	c #2D8AC1",
"' 	c #1278B7",
") 	c #016EB1",
"! 	c #0C75B5",
"~ 	c #2887BF",
"{ 	c #3590C5",
"] 	c #3692C6",
"^ 	c #3290C6",
"/ 	c #2A8DC4",
"( 	c #2D8FC6",
"_ 	c #3592C7",
": 	c #3691C6",
"< 	c #2987BF",
"[ 	c #0D76B5",
"} 	c #167BB9",
"| 	c #338EC3",
"1 	c #3591C6",
"2 	c #3392C7",
"3 	c #3191C7",
"4 	c #409ACC",
"5 	c #68B0D7",
"6 	c #54A3D0",
"7 	c #2D8EC5",
"8 	c #3393C8",
"9 	c #177CB9",
"0 	c #3690C4",
"a 	c #3491C6",
"b 	c #3392C8",
"c 	c #3394C9",
"d 	c #2A91C8",
"e 	c #67B1D9",
"f 	c #FFFFFF",
"g 	c #B9D1E4",
"h 	c #1B81BD",
"i 	c #3598CC",
"j 	c #187DBA",
"k 	c #0E77B6",
"l 	c #348FC4",
"m 	c #3395CA",
"n 	c #3397CC",
"o 	c #2A94CB",
"p 	c #65B3DB",
"q 	c #B4CEE3",
"r 	c #1C84C0",
"s 	c #359BD0",
"t 	c #358FC4",
"u 	c #1077B6",
"v 	c #2C89C0",
"w 	c #3398CD",
"x 	c #339ACF",
"y 	c #2A97CF",
"z 	c #65B5DD",
"A 	c #1C87C2",
"B 	c #369ED2",
"C 	c #349ACF",
"D 	c #3398CC",
"E 	c #2C89C1",
"F 	c #167CB9",
"G 	c #3690C5",
"H 	c #3391C7",
"I 	c #3394CA",
"J 	c #339CD1",
"K 	c #2A9BD2",
"L 	c #65B8DF",
"M 	c #1C89C4",
"N 	c #34A1D5",
"O 	c #329CD1",
"P 	c #3695CA",
"Q 	c #3492C7",
"R 	c #3791C5",
"S 	c #157BB8",
"T 	c #2786BF",
"U 	c #3292C8",
"V 	c #3195CB",
"W 	c #3199CE",
"X 	c #319BD0",
"Y 	c #319ED3",
"Z 	c #289DD4",
"` 	c #64B9E2",
" .	c #B5CEE3",
"..	c #037CC0",
"+.	c #068FCE",
"@.	c #0589C9",
"#.	c #0786C6",
"$.	c #0D86C4",
"%.	c #1C8AC5",
"&.	c #3893C7",
"*.	c #2A88C0",
"=.	c #0873B4",
"-.	c #328DC3",
";.	c #3494CA",
">.	c #3497CC",
",.	c #339DD2",
"'.	c #33A0D5",
").	c #2A9FD5",
"!.	c #65BBE3",
"~.	c #B7CFE3",
"{.	c #007CC0",
"].	c #008DCE",
"^.	c #0088CA",
"/.	c #0084C6",
"(.	c #0080C2",
"_.	c #007CBE",
":.	c #037ABC",
"<.	c #1781BE",
"[.	c #2E8BC2",
"}.	c #0974B4",
"|.	c #298DC5",
"1.	c #7DBBDD",
"2.	c #D9EBF4",
"3.	c #D8EAF4",
"4.	c #D8EBF5",
"5.	c #D6EBF5",
"6.	c #E1F0F8",
"7.	c #F2F6FA",
"8.	c #D0E6F3",
"9.	c #D1E8F5",
"0.	c #D1E8F4",
"a.	c #D1E7F3",
"b.	c #C7DFED",
"c.	c #1879B7",
"d.	c #0072B7",
"e.	c #0776B7",
"f.	c #0572B3",
"g.	c #147AB8",
"h.	c #278CC4",
"i.	c #90C6E3",
"j.	c #FDFAFB",
"k.	c #1F7AB6",
"l.	c #0074B8",
"m.	c #0072B5",
"n.	c #006FB2",
"o.	c #137AB8",
"p.	c #8EC5E2",
"q.	c #F8F8FA",
"r.	c #1E7AB6",
"s.	c #0073B5",
"t.	c #288CC4",
"u.	c #89C1E0",
"v.	c #F5F9FC",
"w.	c #F5FAFC",
"x.	c #F3F9FC",
"y.	c #F2F9FC",
"z.	c #F6FBFD",
"A.	c #FBFDFE",
"B.	c #F2F8FC",
"C.	c #E8F0F6",
"D.	c #1D7AB6",
"E.	c #3291C6",
"F.	c #3D99CC",
"G.	c #4BA3D2",
"H.	c #40A0D2",
"I.	c #1D92CD",
"J.	c #1C95D0",
"K.	c #1B94D1",
"L.	c #53B4E0",
"M.	c #BED4E6",
"N.	c #1B8AC8",
"O.	c #1C9AD4",
"P.	c #1C92CC",
"Q.	c #1C8EC9",
"R.	c #1B8AC5",
"S.	c #0379BB",
"T.	c #0075B8",
"U.	c #006EB1",
"V.	c #2987C0",
"W.	c #3592C6",
"X.	c #3192C8",
"Y.	c #1189C7",
"Z.	c #007FC3",
"`.	c #0085C8",
" +	c #0083C9",
".+	c #39A7DA",
"++	c #B4CEE2",
"@+	c #0078BE",
"#+	c #008ACD",
"$+	c #0084C8",
"%+	c #0080C4",
"&+	c #007DC0",
"*+	c #0079BD",
"=+	c #0078BB",
"-+	c #0074B7",
";+	c #0071B3",
">+	c #197EBA",
",+	c #3492C8",
"'+	c #3295CA",
")+	c #0882C2",
"!+	c #0085C6",
"~+	c #0082C7",
"{+	c #3EA6D7",
"]+	c #B6CFE3",
"^+	c #0078BD",
"/+	c #0089CA",
"(+	c #0081C3",
"_+	c #007EC0",
":+	c #007ABC",
"<+	c #0077B9",
"[+	c #0073B6",
"}+	c #006FB3",
"|+	c #0471B3",
"1+	c #2D90C7",
"2+	c #037DBE",
"3+	c #0082C3",
"4+	c #007EC3",
"5+	c #3EA3D5",
"6+	c #0075BA",
"7+	c #0085C7",
"8+	c #007BBD",
"9+	c #0078BA",
"0+	c #0075B7",
"a+	c #0071B4",
"b+	c #3891C5",
"c+	c #278BC3",
"d+	c #007BBF",
"e+	c #3EA0D2",
"f+	c #0076B8",
"g+	c #1F81BC",
"h+	c #2889C1",
"i+	c #007ABD",
"j+	c #0077BB",
"k+	c #409FD0",
"l+	c #BDD2E4",
"m+	c #006FB4",
"n+	c #007EBF",
"o+	c #0070B3",
"p+	c #137BB9",
"q+	c #0273B6",
"r+	c #0077BA",
"s+	c #1082C1",
"t+	c #439DCE",
"u+	c #3091C7",
"v+	c #0076B9",
"w+	c #0079BB",
"x+	c #0074B6",
"y+	c #0076B7",
"z+	c #0071B7",
"A+	c #006EB2",
"                  . + @ # $ %                   ",
"              & * = - ; ; > , * ' )             ",
"          ! ~ { ] ^ / / / ( _ : ; < [           ",
"        } | 1 2 3 4 5 5 5 6 7 8 2 1 > 9         ",
"      9 0 a b c d e f f f g h i c 2 a 0 j       ",
"    k l a 8 m n o p f f f q r s n m b a t u     ",
"    v 1 b m w x y z f f f q A B C D m b 1 E %   ",
"  F G H I n x J K L f f f q M N O x i P Q R S   ",
"  T : U V W X Y Z ` f f f  ...+.@.#.$.%.( &.*.  ",
"=.-.a ;.>.x ,.'.).!.f f f ~.{.].^./.(._.:.<.[.}.",
"& ; |.1.2.3.4.4.5.6.f f f 7.8.9.0.a.a.b.c.d.e.f.",
"g.G h.i.f f f f f f f f f f f f f f f j.k.l.m.n.",
"o.G h.p.f f f f f f f f f f f f f f f q.r.l.s.n.",
"& { t.u.v.w.x.y.y.z.f f f A.B.y.y.y.x.C.D.l.m.n.",
"}.- E.F.G.H.I.J.K.L.f f f M.N.O.J.P.Q.R.S.T.m.U.",
"  V.W.X.V Y.Z.`. +.+f f f ++@+#+$+%+&+*+=+-+;+  ",
"  >+: ,+'+)+(.!+~+{+f f f ]+^+/+/.(+_+:+<+[+}+  ",
"  |+[.] 1+2+_+3+4+5+f f f ]+6+7+(+_+8+9+0+a+U.  ",
"    o.b+c+=+8+_+d+e+f f f ]+d.3+_+8+9+f+m.n.    ",
"      g+h+T.9+i+j+k+f f f l+m+n+i+9+f+s.o+      ",
"        p+q+0+<+r+s+t+t+t+u+v+w+<+0+s.o+        ",
"          }+a+x+y+T.z+z+z+l.v+0+[+a+n.          ",
"            U.o+a+m.[+[+[+[+m.a+}+A+            ",
"                  n.o+o+o+o+n.                  "};
