/* XPM */
const char * down_xpm[] = {
"16 16 156 2",
"  	c None",
". 	c #0973B3",
"+ 	c #147AB8",
"@ 	c #1B7EBB",
"# 	c #1A7FBB",
"$ 	c #0872B3",
"% 	c #0973B4",
"& 	c #2484BE",
"* 	c #348FC4",
"= 	c #2F8FC5",
"- 	c #298CC4",
"; 	c #2A8DC5",
"> 	c #3693C7",
", 	c #338EC4",
"' 	c #2283BD",
") 	c #0771B3",
"! 	c #0F77B6",
"~ 	c #318DC3",
"{ 	c #2D90C7",
"] 	c #69B1D8",
"^ 	c #9CCBE5",
"/ 	c #94C6E2",
"( 	c #3690C5",
"_ 	c #3293C9",
": 	c #3793C8",
"< 	c #308CC3",
"[ 	c #0C75B5",
"} 	c #328EC4",
"| 	c #3593C8",
"1 	c #3395CA",
"2 	c #2592CA",
"3 	c #A3D1E9",
"4 	c #FFFFFF",
"5 	c #FDFAFB",
"6 	c #388DC2",
"7 	c #2F98CD",
"8 	c #3395CB",
"9 	c #2686BF",
"0 	c #3693C8",
"a 	c #339ACE",
"b 	c #2697CF",
"c 	c #9CD0EA",
"d 	c #F1F4F8",
"e 	c #3991C5",
"f 	c #319DD2",
"g 	c #359ACE",
"h 	c #3697CB",
"i 	c #3894C8",
"j 	c #2383BE",
"k 	c #0B75B5",
"l 	c #3490C5",
"m 	c #3494C9",
"n 	c #2C95CC",
"o 	c #2A99D0",
"p 	c #279DD4",
"q 	c #9DD3EC",
"r 	c #F3F5F8",
"s 	c #2A8CC4",
"t 	c #0C8ECE",
"u 	c #0787C7",
"v 	c #198CC7",
"w 	c #2B90C7",
"x 	c #3590C5",
"y 	c #197EBA",
"z 	c #3793C7",
"A 	c #2790C8",
"B 	c #6FB9DD",
"C 	c #7DB9DB",
"D 	c #1390CD",
"E 	c #96D4EE",
"F 	c #F5F5F8",
"G 	c #1485C2",
"H 	c #0F95D3",
"I 	c #7FBDDF",
"J 	c #067ABB",
"K 	c #0079BC",
"L 	c #1681BD",
"M 	c #1078B7",
"N 	c #2082BD",
"O 	c #2F90C6",
"P 	c #6AB3DA",
"Q 	c #F8FCFE",
"R 	c #FFFEFD",
"S 	c #60A8D3",
"T 	c #78C0E3",
"U 	c #EFF2F7",
"V 	c #2D90C8",
"W 	c #BFE5F6",
"X 	c #B7D2E6",
"Y 	c #0E78B9",
"Z 	c #0074B7",
"` 	c #0070B2",
" .	c #1F82BD",
"..	c #2E8FC6",
"+.	c #72B7DC",
"@.	c #FCFDFE",
"#.	c #FAFAFC",
"$.	c #D6E6F1",
"%.	c #F3F7FB",
"&.	c #D9E8F2",
"*.	c #C3D9E9",
"=.	c #1079B9",
"-.	c #0075B8",
";.	c #2890C8",
">.	c #6CB6DD",
",.	c #F6FBFD",
"'.	c #BAD4E7",
").	c #0D7BBB",
"!.	c #0075B7",
"~.	c #006FB2",
"{.	c #0B75B6",
"].	c #3490C6",
"^.	c #3696CA",
"/.	c #0B85C5",
"(.	c #4BA7D6",
"_.	c #BAD5E7",
":.	c #0D7CBD",
"<.	c #007CC0",
"[.	c #0079BB",
"}.	c #0073B6",
"|.	c #006EB1",
"1.	c #2687C0",
"2.	c #0E83C1",
"3.	c #0077BE",
"4.	c #4DA8D7",
"5.	c #BDD6E7",
"6.	c #007DC1",
"7.	c #007BBE",
"8.	c #0076B8",
"9.	c #0071B4",
"0.	c #0A74B5",
"a.	c #318EC4",
"b.	c #0A7DBD",
"c.	c #007ABD",
"d.	c #0077BD",
"e.	c #52A9D6",
"f.	c #FDFEFF",
"g.	c #0F7BBB",
"h.	c #007CBE",
"i.	c #0077BA",
"j.	c #0072B5",
"k.	c #0E77B6",
"l.	c #0877B8",
"m.	c #0076B9",
"n.	c #0076BB",
"o.	c #419CCE",
"p.	c #1681BE",
"q.	c #0078BC",
"r.	c #007ABC",
"s.	c #0073B5",
"t.	c #006EB2",
"u.	c #0074B6",
"v.	c #0071B6",
"w.	c #0074B8",
"x.	c #0071B3",
"y.	c #0070B3",
"          . + @ # + $           ",
"      % & * = - ; > , ' )       ",
"    ! ~ > { ] ^ / ( _ : < [     ",
"  % } | 1 2 3 4 5 6 7 8 | < )   ",
"  9 0 8 a b c 4 d e f g h i j   ",
"k l m n o p q 4 r s t u v w x % ",
"y z A B C D E 4 F G H I J K L M ",
"N O P Q R S T 4 U V W 4 X Y Z ` ",
" ...+.@.4 #.$.4 %.&.4 4 *.=.-.` ",
"y z ;.>.,.4 4 4 4 4 4 '.).K !.~.",
"{.].^./.(.,.4 4 4 4 _.:.<.[.}.|.",
"  1.i 2.3.4.Q 4 4 5.:.6.7.8.9.  ",
"  0.a.b.c.d.e.f.*.g.<.h.i.j.|.  ",
"    k.l.m.[.n.o.p.q.r.m.s.~.    ",
"      t.9.u.8.v.w.8.u.9.~.      ",
"          ~.` x.y.` ~.          "};
