/* XPM */
const char * help_xpm[] = {
"24 24 209 2",
"  	c None",
". 	c #595655",
"+ 	c #5F5C5B",
"@ 	c #625F5D",
"# 	c #625F5E",
"$ 	c #646160",
"% 	c #716F6D",
"& 	c #797776",
"* 	c #7F7C7B",
"= 	c #807E7D",
"- 	c #7F7D7C",
"; 	c #797876",
"> 	c #575452",
", 	c #615E5C",
"' 	c #767472",
") 	c #838180",
"! 	c #848281",
"~ 	c #686564",
"{ 	c #7E7C7B",
"] 	c #828180",
"^ 	c #838281",
"/ 	c #858482",
"( 	c #818180",
"_ 	c #81807F",
": 	c #858483",
"< 	c #82817F",
"[ 	c #7E7D7B",
"} 	c #696664",
"| 	c #858382",
"1 	c #868584",
"2 	c #979595",
"3 	c #B6B6B5",
"4 	c #C7C6C6",
"5 	c #C8C7C7",
"6 	c #BBB9B9",
"7 	c #989696",
"8 	c #858383",
"9 	c #696765",
"0 	c #635F5E",
"a 	c #878685",
"b 	c #8A8887",
"c 	c #CAC9C9",
"d 	c #F8F8F7",
"e 	c #FFFFFF",
"f 	c #FAFAFA",
"g 	c #D3D2D2",
"h 	c #868484",
"i 	c #868483",
"j 	c #63605E",
"k 	c #787674",
"l 	c #898886",
"m 	c #C8C8C8",
"n 	c #E2E2E2",
"o 	c #7C7A79",
"p 	c #888786",
"q 	c #787675",
"r 	c #595654",
"s 	c #82807E",
"t 	c #888685",
"u 	c #A1A09F",
"v 	c #FCFCFB",
"w 	c #E0E0E0",
"x 	c #DDDDDD",
"y 	c #FCFCFC",
"z 	c #A5A3A3",
"A 	c #817F7E",
"B 	c #8A8987",
"C 	c #848381",
"D 	c #676463",
"E 	c #757271",
"F 	c #8A8988",
"G 	c #888686",
"H 	c #C1C1C0",
"I 	c #D1D0D0",
"J 	c #878584",
"K 	c #8E8E8C",
"L 	c #CDCCCB",
"M 	c #6D6B6A",
"N 	c #82807F",
"O 	c #777573",
"P 	c #5E5B59",
"Q 	c #7D7B7A",
"R 	c #838181",
"S 	c #8C8A8A",
"T 	c #8E8D8C",
"U 	c #A9A8A7",
"V 	c #CCCCCB",
"W 	c #D7D6D6",
"X 	c #E0DFDF",
"Y 	c #999797",
"Z 	c #E1E0E0",
"` 	c #B6B5B4",
" .	c #676564",
"..	c #6E6C6B",
"+.	c #6A6967",
"@.	c #716F6E",
"#.	c #7A7877",
"$.	c #5E5B5A",
"%.	c #817F7D",
"&.	c #8D8C8B",
"*.	c #929191",
"=.	c #949392",
"-.	c #969594",
";.	c #989796",
">.	c #8E8D8D",
",.	c #898887",
"'.	c #979695",
").	c #E1E1E1",
"!.	c #F5F5F5",
"~.	c #7C7979",
"{.	c #737170",
"].	c #716E6E",
"^.	c #6A6867",
"/.	c #62605F",
"(.	c #63615F",
"_.	c #5C5958",
":.	c #666362",
"<.	c #858381",
"[.	c #8E8C8C",
"}.	c #939191",
"|.	c #999897",
"1.	c #9A9998",
"2.	c #EAEAEA",
"3.	c #F4F4F4",
"4.	c #959392",
"5.	c #757473",
"6.	c #787776",
"7.	c #716F6F",
"8.	c #6B6968",
"9.	c #656362",
"0.	c #5E5C5B",
"a.	c #666462",
"b.	c #81807E",
"c.	c #949292",
"d.	c #8B8A89",
"e.	c #DDDDDC",
"f.	c #E9E8E8",
"g.	c #8F8D8C",
"h.	c #7B7978",
"i.	c #7F7D7D",
"j.	c #777675",
"k.	c #72706F",
"l.	c #6C6969",
"m.	c #5F5D5C",
"n.	c #5A5755",
"o.	c #646260",
"p.	c #9F9E9D",
"q.	c #F6F5F5",
"r.	c #807F7E",
"s.	c #848282",
"t.	c #7C7B7B",
"u.	c #5F5D5B",
"v.	c #5F5C5A",
"w.	c #8D8B8B",
"x.	c #7B7A79",
"y.	c #A2A1A1",
"z.	c #EEEEEE",
"A.	c #EDEDED",
"B.	c #C2C1C1",
"C.	c #787676",
"D.	c #6F6D6C",
"E.	c #696766",
"F.	c #585553",
"G.	c #767473",
"H.	c #767674",
"I.	c #7E7C7C",
"J.	c #979696",
"K.	c #908F8E",
"L.	c #7D7C7B",
"M.	c #686665",
"N.	c #5C5A58",
"O.	c #83817F",
"P.	c #757272",
"Q.	c #747272",
"R.	c #A8A8A7",
"S.	c #F6F6F5",
"T.	c #D5D4D4",
"U.	c #7E7D7C",
"V.	c #797877",
"W.	c #757372",
"X.	c #706E6D",
"Y.	c #605E5C",
"Z.	c #5A5756",
"`.	c #5B5856",
" +	c #7A7977",
".+	c #727070",
"++	c #DEDDDD",
"@+	c #706F6D",
"#+	c #6C6A69",
"$+	c #686664",
"%+	c #5D5A59",
"&+	c #A7A6A6",
"*+	c #E2E3E2",
"=+	c #747271",
"-+	c #646261",
";+	c #6F6C6B",
">+	c #636160",
",+	c #696767",
"'+	c #8C8B8A",
")+	c #C3C2C1",
"!+	c #ADACAC",
"~+	c #605D5C",
"{+	c #5B5857",
"]+	c #676563",
"^+	c #666463",
"/+	c #5A5856",
"(+	c #615E5D",
"_+	c #656361",
":+	c #5D5B59",
"                  . + @ # + .                   ",
"              $ % & * = = - ; % $ >             ",
"          , ' = ) ) ! ! ! ! ) ) = ' ,           ",
"        ~ { ] ^ / ! ( _ _ _ ! : ^ < [ }         ",
"      } = ) | 1 | 2 3 4 5 6 7 ) 8 : < = 9       ",
"    0 - ) : a b c d e e e e f g h | i ] - j     ",
"    k ) | l h m e e e e e e e e n o p | < q r   ",
"  ~ s ! t p u v e e e w x y e e e z A B C s D   ",
"  E ) i F G H e e e I J K I e e e L M - N ! O   ",
"P Q R a S T U V W X Y A T Z e e e `  ...+.@.#.$.",
"$ %.! p &.*.=.-.;.>.,.'.).e e e !.~.{.].^./.(._.",
":.A <.,.[.}.|.1.&.F 1.2.e e e 3.4.5.6.7.8.9.0.. ",
"a.b.| ,.T c.2 ,.p d.e.e e e f.g.h.i.j.k.l.9.m.n.",
"o.A <.,.[.c.p _ : p.e e e q.t r.s.t.j.@.8.9.u.. ",
"v.{ ^ t &.w.x.r._ y.z.A.A.B.C.p r.x.5.D.E.o.$.F.",
"  G.) 1 S = H.I._ d.J.;.;.K.^ ] L.6.{.M M./.N.  ",
"  ^.O.| p P.Q.#.j.R.S.q.q.T.5.U.V.W.X.8.9.Y.Z.  ",
"  `. +! ] ..@.5..+U e e e ++@+V.W.@.#+$+/.%+F.  ",
"    a.N o M.M X.#+&+e e e *+#+=+X.#+M.-+u.n.    ",
"      ;+& >+M.8.,+'+)+B.B.!+8...8.$+o.~+{+      ",
"        ]+Y.(.^+E.M.9.9.9.^+8.M.^+>+u.{+        ",
"          /+$.(+>+_+^+ . .^+-+(.(+:+Z.          ",
"            r {+%++ Y.(+(+Y.+ %+{+r             ",
"                  . `.`.`.`..                   "};
