/* XPM */
const char * play24_xpm[] = {
"24 24 223 2",
"  	c None",
". 	c #CCCBCB",
"+ 	c #D0D0D0",
"@ 	c #D3D2D1",
"# 	c #D3D3D2",
"$ 	c #D0D0CF",
"% 	c #CBCBCA",
"& 	c #D5D4D4",
"* 	c #DFDFDF",
"= 	c #E5E5E5",
"- 	c #EAE9E9",
"; 	c #EBEBEB",
"> 	c #EAEAEA",
", 	c #E6E6E5",
"' 	c #E0DFDF",
") 	c #CACAC9",
"! 	c #D2D1D1",
"~ 	c #E3E3E2",
"{ 	c #EDECEC",
"] 	c #EDEDED",
"^ 	c #ECECEC",
"/ 	c #E3E3E3",
"( 	c #D8D8D7",
"_ 	c #E9E9E9",
": 	c #EDEDEC",
"< 	c #EEEDED",
"[ 	c #EEEEEE",
"} 	c #EFEEEE",
"| 	c #EFEFEF",
"1 	c #D9D8D7",
"2 	c #D9D8D8",
"3 	c #F0F0F0",
"4 	c #F1F0F0",
"5 	c #D9D9D8",
"6 	c #EFEFEE",
"7 	c #EFF0F0",
"8 	c #F5F2F1",
"9 	c #FBF6F3",
"0 	c #F2F2F2",
"a 	c #F2F1F1",
"b 	c #F1F1F1",
"c 	c #ECECEB",
"d 	c #D4D3D2",
"e 	c #E5E4E4",
"f 	c #F6F3F2",
"g 	c #D8E7EE",
"h 	c #BEDCEB",
"i 	c #FFFAF6",
"j 	c #FBF7F5",
"k 	c #F4F4F4",
"l 	c #F3F4F3",
"m 	c #F3F3F3",
"n 	c #F2F2F1",
"o 	c #D8D7D7",
"p 	c #ECEBEB",
"q 	c #FDF7F4",
"r 	c #BADAEC",
"s 	c #058BD4",
"t 	c #64B7E3",
"u 	c #DEECF3",
"v 	c #FFFDF9",
"w 	c #FBF8F7",
"x 	c #F5F5F5",
"y 	c #F0EFEF",
"z 	c #D7D7D6",
"A 	c #E2E1E1",
"B 	c #EEEEED",
"C 	c #F3F3F2",
"D 	c #FEF8F5",
"E 	c #C1DEEE",
"F 	c #008CD7",
"G 	c #0089D8",
"H 	c #1593D8",
"I 	c #84C3E4",
"J 	c #EBEFF2",
"K 	c #FEF6F1",
"L 	c #EEEDEC",
"M 	c #E7E7E7",
"N 	c #E9E8E8",
"O 	c #E4E3E3",
"P 	c #CFCFCE",
"Q 	c #F3F4F4",
"R 	c #FFF9F6",
"S 	c #C2DFEF",
"T 	c #008BD5",
"U 	c #008DD7",
"V 	c #0089D3",
"W 	c #0080CC",
"X 	c #2491CF",
"Y 	c #9CC7E0",
"Z 	c #F1EFED",
"` 	c #F5EFEB",
" .	c #E7E6E6",
"..	c #E2E2E2",
"+.	c #DFDEDE",
"@.	c #DDDDDC",
"#.	c #E1E1E0",
"$.	c #D0CFCE",
"%.	c #D4D4D3",
"&.	c #F5F4F4",
"*.	c #FFFBF8",
"=.	c #C3DFEF",
"-.	c #0087D0",
";.	c #0088D1",
">.	c #0088D0",
",.	c #0084CC",
"'.	c #007DC6",
").	c #0077C1",
"!.	c #3E95CB",
"~.	c #B2CEDF",
"{.	c #F4EEEA",
"].	c #EBE7E5",
"^.	c #E0E0E0",
"/.	c #DDDCDC",
"(.	c #D6D5D5",
"_.	c #CECECD",
":.	c #D6D6D5",
"<.	c #FFFAF7",
"[.	c #BEDAE9",
"}.	c #0083CB",
"|.	c #0084CB",
"1.	c #0081C8",
"2.	c #007EC5",
"3.	c #007BC1",
"4.	c #0071BB",
"5.	c #0171B8",
"6.	c #4893C3",
"7.	c #C1D1DC",
"8.	c #E6E3E1",
"9.	c #DDDDDD",
"0.	c #DAD9D9",
"a.	c #D3D2D2",
"b.	c #CCCCCB",
"c.	c #D7D6D6",
"d.	c #F9F3F0",
"e.	c #BCD8E7",
"f.	c #007EC6",
"g.	c #007FC7",
"h.	c #007FC6",
"i.	c #007EC4",
"j.	c #0078BE",
"k.	c #0071B9",
"l.	c #0069B3",
"m.	c #3285BD",
"n.	c #B0C8D8",
"o.	c #E8E5E2",
"p.	c #DEDDDD",
"q.	c #D4D3D3",
"r.	c #CDCCCC",
"s.	c #F5F0ED",
"t.	c #BCD6E6",
"u.	c #007BC2",
"v.	c #007AC0",
"w.	c #0075BC",
"x.	c #006DB7",
"y.	c #2584BF",
"z.	c #99C0D8",
"A.	c #ECEAE8",
"B.	c #EEE9E6",
"C.	c #D1D0CF",
"D.	c #E8E7E7",
"E.	c #F4EFEC",
"F.	c #BBD4E3",
"G.	c #0076BD",
"H.	c #0077BD",
"I.	c #006DB8",
"J.	c #147BBD",
"K.	c #81B4D6",
"L.	c #E6E9EB",
"M.	c #F9F2ED",
"N.	c #E9E8E7",
"O.	c #DCDCDC",
"P.	c #CBCACA",
"Q.	c #E9E9E8",
"R.	c #F2EDEA",
"S.	c #B9D1E0",
"T.	c #0071B8",
"U.	c #006BB5",
"V.	c #0573B8",
"W.	c #65A5CF",
"X.	c #D8E3EA",
"Y.	c #FDF6F1",
"Z.	c #F0EDEC",
"`.	c #E8E8E8",
" +	c #E2E2E1",
".+	c #DBDBDB",
"++	c #D0CFCF",
"@+	c #E3E2E2",
"#+	c #F0EBE8",
"$+	c #B2CCDC",
"%+	c #0068B1",
"&+	c #4993C4",
"*+	c #BFD4E1",
"=+	c #FCF5F0",
"-+	c #F3F0ED",
";+	c #EBEAEA",
">+	c #E0E0DF",
",+	c #DADAD9",
"'+	c #CECDCC",
")+	c #CDCDCC",
"!+	c #DFDFDE",
"~+	c #E1E0E0",
"{+	c #E9E6E4",
"]+	c #C5D3DD",
"^+	c #A2C1D6",
"/+	c #EEECEA",
"(+	c #F4EFEB",
"_+	c #E6E5E5",
":+	c #DEDEDD",
"<+	c #DBDBDA",
"[+	c #D1D0D0",
"}+	c #DCDBDB",
"|+	c #E5E4E2",
"1+	c #E7E5E5",
"2+	c #E4E4E3",
"3+	c #E6E6E6",
"4+	c #E1E1E1",
"5+	c #CFCECE",
"6+	c #CECDCD",
"7+	c #D5D5D4",
"8+	c #DAD9D8",
"9+	c #DADADA",
"0+	c #CCCBCA",
"                  . + @ # $ %                   ",
"              & * = - ; ; > , ' & )             ",
"          ! ~ ; { ] ] ] ] ] ^ { ; / !           ",
"        ( _ { : < [ } | | } [ < { ^ - 1         ",
"      2 ; { ] [ | 3 3 4 4 3 3 | [ ] ^ ; 5       ",
"    # > ^ < 6 7 8 9 0 0 0 0 a b 3 } ] c > d     ",
"    e ^ ] | 4 f g h i j k k l m n 3 | ] ^ e %   ",
"  o p ] [ 3 a q r s t u v w x k 0 a 4 y ] ^ z   ",
"  A : B y b C D E F G H I J K L _ M , N p ] O   ",
"P N : [ 3 0 Q R S T U V W X Y Z `  ...+.@.#. .$.",
"%.; ] | 4 0 &.*.=.-.;.>.,.'.).!.~.{.].^./.o (._.",
":.p ] | b m x <.[.}.,.|.1.2.3.4.5.6.7.8.9.0.a.b.",
"c.c ] | b m k d.e.f.g.h.i.3.j.k.l.m.n.o.p.0.q.r.",
"& p ] | b m [ s.t.3.u.3.v.w.x.y.z.A.B.^.9.0.# b.",
"C.- ] } 4 3 D.E.F.G.H.w.I.J.K.L.M.N./ ' O.5 ! P.",
"  O : [ 4 Q.e R.S.T.U.V.W.X.Y.Z.`.=  ++..+c.++  ",
"  0.{ ] } @+~ #+$+%+&+*+=+-+;+N , / >+@.,+q.'+  ",
"  )+ .: p !+~+{+]+^+/+(+_ N M _+O ~+:+<+z [+P.  ",
"    c.^ `.}+:+^.|+B.1+= _+e 2+..^.:+.+( a.r.    ",
"      p.3+( <+9.!+~+4+A A 4+^.+.9.<+( q.5+      ",
"        o q.z ,+}+@.p.:+:+p.@.}+,+o # 5+        ",
"          6+! 7+o 8+,+9+9+,+5 o & [+6+          ",
"            0+6+[+a.%.& & & a.[+6+0+            ",
"                  . 6+6+6+'+.                   "};
