/* XPM */
const char * stop_sign_xpm[] = {
"24 24 328 2",
"  	c None",
". 	c #F12D34",
"+ 	c #F13F44",
"@ 	c #F24649",
"# 	c #F2474A",
"$ 	c #F14046",
"% 	c #F12E36",
"& 	c #F02B33",
"* 	c #F35857",
"= 	c #F9B39A",
"- 	c #F99C80",
"; 	c #F99D81",
"> 	c #F99C82",
", 	c #F99C81",
"' 	c #F9A184",
") 	c #F14641",
"! 	c #F02E36",
"~ 	c #EF2A32",
"{ 	c #F25656",
"] 	c #F9B199",
"^ 	c #F67C5F",
"/ 	c #F67C5E",
"( 	c #F67A5D",
"_ 	c #F6795C",
": 	c #F3795B",
"< 	c #F4795B",
"[ 	c #F58161",
"} 	c #F04542",
"| 	c #EF2D35",
"1 	c #ED2A32",
"2 	c #F15555",
"3 	c #F9B096",
"4 	c #F67A5C",
"5 	c #F47A5C",
"6 	c #F47A5D",
"7 	c #F4795A",
"8 	c #F4785A",
"9 	c #F57E5D",
"0 	c #F04541",
"a 	c #ED2D35",
"b 	c #EC2B32",
"c 	c #F05555",
"d 	c #F8AC95",
"e 	c #F4775B",
"f 	c #F4775A",
"g 	c #F47659",
"h 	c #F47559",
"i 	c #F47558",
"j 	c #F47459",
"k 	c #F5795B",
"l 	c #EF4341",
"m 	c #EC2E36",
"n 	c #E82A32",
"o 	c #EF5553",
"p 	c #F9AA94",
"q 	c #F47358",
"r 	c #F47357",
"s 	c #F47257",
"t 	c #F47155",
"u 	c #F47255",
"v 	c #F57758",
"w 	c #EE4240",
"x 	c #E92D34",
"y 	c #E62B32",
"z 	c #EE5451",
"A 	c #F9A890",
"B 	c #F47256",
"C 	c #F47055",
"D 	c #F47153",
"E 	c #F46E53",
"F 	c #F46E52",
"G 	c #F46D52",
"H 	c #F57355",
"I 	c #EC423F",
"J 	c #E62E35",
"K 	c #E83D40",
"L 	c #F9A78E",
"M 	c #F46F54",
"N 	c #F46E50",
"O 	c #F36B4D",
"P 	c #F46C4E",
"Q 	c #F46F4F",
"R 	c #F46D4C",
"S 	c #F46A4C",
"T 	c #F46A4B",
"U 	c #F46D50",
"V 	c #F46E51",
"W 	c #F4694B",
"X 	c #F36348",
"Y 	c #F4664C",
"Z 	c #F46B50",
"` 	c #F4684F",
" .	c #F4654B",
"..	c #F4644A",
"+.	c #F4694F",
"@.	c #F66F53",
"#.	c #E73639",
"$.	c #E74346",
"%.	c #F98F75",
"&.	c #F1513D",
"*.	c #F58285",
"=.	c #FBD0D5",
"-.	c #F79BA3",
";.	c #F1555E",
">.	c #F79EA6",
",.	c #F699A1",
"'.	c #F15962",
").	c #EF4239",
"!.	c #F69BA4",
"~.	c #FBD1D6",
"{.	c #F79095",
"].	c #F14136",
"^.	c #F36359",
"/.	c #F79EA7",
"(.	c #F14A49",
"_.	c #F4624B",
":.	c #E6383A",
"<.	c #E54145",
"[.	c #F9886F",
"}.	c #F07B83",
"|.	c #FFFFFF",
"1.	c #FDF8F8",
"2.	c #F38E93",
"3.	c #F39BA0",
"4.	c #FFFBFB",
"5.	c #F0655B",
"6.	c #FDF7F5",
"7.	c #F0443E",
"8.	c #E43838",
"9.	c #E34146",
"0.	c #F8846B",
"a.	c #F09DA5",
"b.	c #E20B0E",
"c.	c #E40B07",
"d.	c #E20502",
"e.	c #E00000",
"f.	c #F6C5C8",
"g.	c #DF0000",
"h.	c #E73D46",
"i.	c #EC5D62",
"j.	c #E40000",
"k.	c #F7CACD",
"l.	c #E21922",
"m.	c #E83A3B",
"n.	c #F06E6C",
"o.	c #E13739",
"p.	c #DE383C",
"q.	c #F6674B",
"r.	c #E1383D",
"s.	c #EC888F",
"t.	c #E41106",
"u.	c #E91608",
"v.	c #F3C8CD",
"w.	c #E80A00",
"x.	c #E87379",
"y.	c #DD0601",
"z.	c #F22910",
"A.	c #E97174",
"B.	c #E66167",
"C.	c #ED6F76",
"D.	c #E42D2A",
"E.	c #DB1F20",
"F.	c #D10F12",
"G.	c #F65038",
"H.	c #E81608",
"I.	c #DA3135",
"J.	c #E26266",
"K.	c #E60E02",
"L.	c #F0C8CD",
"M.	c #E40700",
"N.	c #E37078",
"O.	c #DC110D",
"P.	c #F3210D",
"Q.	c #E1676F",
"R.	c #E26066",
"S.	c #EB170A",
"T.	c #D0080B",
"U.	c #CE1114",
"V.	c #F64D35",
"W.	c #D02B2E",
"X.	c #D91C19",
"Y.	c #CC0B0C",
"Z.	c #DC7178",
"`.	c #E30C00",
" +	c #F0C8CC",
".+	c #E20700",
"++	c #D94B4E",
"@+	c #E68789",
"#+	c #CB0000",
"$+	c #C90B0F",
"%+	c #CA2B2B",
"&+	c #D60000",
"*+	c #EA180B",
"=+	c #F32416",
"-+	c #CE090B",
";+	c #CA1214",
">+	c #EC3929",
",+	c #E6AAAF",
"'+	c #D12A29",
")+	c #DF0C03",
"!+	c #EFD3D5",
"~+	c #DE0800",
"{+	c #DA0600",
"]+	c #F2E8EB",
"^+	c #E1342B",
"/+	c #F31B0E",
"(+	c #F02015",
"_+	c #F22116",
":+	c #C9090A",
"<+	c #C91113",
"[+	c #F34030",
"}+	c #C8110F",
"|+	c #D15F61",
"1+	c #C70C0A",
"2+	c #EE1C10",
"3+	c #E2170E",
"4+	c #C11C1C",
"5+	c #C92C2B",
"6+	c #E1150D",
"7+	c #F32114",
"8+	c #CA0000",
"9+	c #D14A4B",
"0+	c #C71515",
"a+	c #E31009",
"b+	c #D71510",
"c+	c #BA1011",
"d+	c #F11B12",
"e+	c #EE1B13",
"f+	c #F11C14",
"g+	c #C6090A",
"h+	c #C20C10",
"i+	c #F84433",
"j+	c #F11E11",
"k+	c #F11C0F",
"l+	c #F11B0E",
"m+	c #F11F13",
"n+	c #F21F14",
"o+	c #F11D12",
"p+	c #F01F14",
"q+	c #EF1D14",
"r+	c #F01C14",
"s+	c #F0180E",
"t+	c #F0150C",
"u+	c #F01811",
"v+	c #EF1A13",
"w+	c #F01A12",
"x+	c #F11912",
"y+	c #EF1813",
"z+	c #F41A13",
"A+	c #C10609",
"B+	c #AF0105",
"C+	c #CB1819",
"D+	c #F4291E",
"E+	c #EF1C13",
"F+	c #EE1C14",
"G+	c #EE1C13",
"H+	c #EE1A13",
"I+	c #EE1913",
"J+	c #EE1813",
"K+	c #EE1812",
"L+	c #EE1712",
"M+	c #EE1612",
"N+	c #EF1512",
"O+	c #F31713",
"P+	c #C7090B",
"Q+	c #B00306",
"R+	c #AB0004",
"S+	c #C71719",
"T+	c #F5231B",
"U+	c #EF1712",
"V+	c #EE1512",
"W+	c #EE1412",
"X+	c #EE1311",
"Y+	c #EF1311",
"Z+	c #F31312",
"`+	c #C5070A",
" @	c #AB0205",
".@	c #A30004",
"+@	c #C41618",
"@@	c #F5211C",
"#@	c #EF1411",
"$@	c #EE1211",
"%@	c #EE1210",
"&@	c #EE1110",
"*@	c #EE1010",
"=@	c #EF1010",
"-@	c #F41010",
";@	c #C20609",
">@	c #A30105",
",@	c #9E0002",
"'@	c #C21417",
")@	c #F61C1A",
"!@	c #EF110F",
"~@	c #EE0F0F",
"{@	c #ED0F0F",
"]@	c #ED0E0F",
"^@	c #ED0D0F",
"/@	c #EE0D0F",
"(@	c #F30E10",
"_@	c #BE0508",
":@	c #9E0103",
"<@	c #970002",
"[@	c #BD1416",
"}@	c #F51819",
"|@	c #EE0D0E",
"1@	c #ED0D0E",
"2@	c #ED0C0E",
"3@	c #ED0B0E",
"4@	c #EE0B0D",
"5@	c #F40C0E",
"6@	c #BC0306",
"7@	c #980003",
"8@	c #920001",
"9@	c #BB1315",
"0@	c #F81519",
"a@	c #F30B0D",
"b@	c #F20C0E",
"c@	c #F20B0E",
"d@	c #F20A0E",
"e@	c #F3080E",
"f@	c #F6090E",
"g@	c #BA0207",
"h@	c #920002",
"i@	c #8B0000",
"j@	c #A00205",
"k@	c #A50103",
"l@	c #A10003",
"m@	c #8B0001",
"            . + @ @ @ @ @ @ @ # $ %             ",
"          & * = - ; ; ; ; > > , ' ) !           ",
"        ~ { ] ^ / ( ( ( ( _ _ : < [ } |         ",
"      1 2 3 4 5 6 6 6 6 < < < < 7 8 9 0 a       ",
"    b c d e 8 < 7 f f f g g g h h i j k l m     ",
"  n o p h i g h h i q q r s s s t t t u v w x   ",
"y z A u B s s s t t t t t C D D E E F G F H I J ",
"K L M N O P Q R S S T U V W X Y Z `  .....+.@.#.",
"$.%.&.*.=.-.;.>.,.,.>.'.).!.~.{.].^./.-./.(._.:.",
"<.[.}.|.1.|.2.|.|.|.|.3.4.|.|.|.|.5.|.6.|.|.7.8.",
"9.0.a.|.b.c.d.e.f.|.g.h.|.i.j.k.|.l.|.m.m.|.n.o.",
"p.q.r.|.|.s.t.u.v.|.w.x.|.y.z.A.|.B.|.C.C.|.D.E.",
"F.G.H.I.|.|.J.K.L.|.M.N.|.O.P.Q.|.R.|.|.|.|.S.T.",
"U.V.W.X.Y.|.Z.`. +|..+++|.@+#+@+|.$+|.%+&+*+=+-+",
";+>+,+|.|.|.'+)+!+|.~+{+]+|.|.|.|.^+|.%+/+(+_+:+",
"<+[+}+|+|+1+2+3+4+5+6+7+8+9+9+0+a+b+%+c+d+e+f+g+",
"h+i+j+k+l+m+(+(+n+o+p+q+r+s+t+u+v+w+u+x+y+y+z+A+",
"B+C+D+E+F+G+e+e+H+H+I+I+J+J+K+L+L+M+M+M+N+O+P+Q+",
"  R+S+T+U+J+K+L+L+M+M+M+V+V+V+V+W+X+X+Y+Z+`+ @  ",
"    .@+@@@#@V+V+W+X+X+X+$@$@%@%@&@*@=@-@;@>@    ",
"      ,@'@)@!@%@&@*@*@~@~@{@]@]@^@/@(@_@:@      ",
"        <@[@}@|@^@^@^@1@2@2@3@3@4@5@6@7@        ",
"          8@9@0@a@b@c@c@c@d@d@e@f@g@h@          ",
"            i@j@k@k@k@k@k@k@k@k@l@m@            "};
