/* XPM */
const char * xlights_xpm[] = {
"16 16 7 1",
" 	c None",
".	c #FFC300",
"+	c #047D12",
"@	c #FF0000",
"#	c #7FB9FA",
"$	c #0011FF",
"%	c #544928",
"       ..       ",
"      ....      ",
"       ..       ",
"       ++       ",
"        +       ",
"      ++++      ",
"     +@@++      ",
"      @@+++     ",
"    ++++++++    ",
"   ++++++@@     ",
"    ##++#+@++   ",
"  ++$$++#+++++  ",
"   ++@@++++++   ",
" ++++@+%%++++++ ",
"  +++++%%+++++  ",
"       %%       "};
